<?xml version="1.0" encoding="UTF-8" standalone="no"?>
<svg
   xmlns:dc="http://purl.org/dc/elements/1.1/"
   xmlns:cc="http://creativecommons.org/ns#"
   xmlns:rdf="http://www.w3.org/1999/02/22-rdf-syntax-ns#"
   xmlns:svg="http://www.w3.org/2000/svg"
   xmlns="http://www.w3.org/2000/svg"
   xmlns:sodipodi="http://sodipodi.sourceforge.net/DTD/sodipodi-0.dtd"
   xmlns:inkscape="http://www.inkscape.org/namespaces/inkscape"
   viewBox="0 0 128 70"
   height="70"
   width="128"
   xml:space="preserve"
   version="1.1"
   id="svg2"
   inkscape:version="0.91 r13725"
   sodipodi:docname="tclogo.svg"><sodipodi:namedview
     pagecolor="#ffffff"
     bordercolor="#666666"
     borderopacity="1"
     objecttolerance="10"
     gridtolerance="10"
     guidetolerance="10"
     inkscape:pageopacity="0"
     inkscape:pageshadow="2"
     inkscape:window-width="1920"
     inkscape:window-height="1043"
     id="namedview43"
     showgrid="false"
     inkscape:zoom="2.421875"
     inkscape:cx="64.825806"
     inkscape:cy="30.674194"
     inkscape:window-x="0"
     inkscape:window-y="0"
     inkscape:window-maximized="1"
     inkscape:current-layer="svg2" /><metadata
     id="metadata8"><rdf:RDF><cc:Work
         rdf:about=""><dc:format>image/svg+xml</dc:format><dc:type
           rdf:resource="http://purl.org/dc/dcmitype/StillImage" /><dc:title></dc:title></cc:Work></rdf:RDF></metadata><defs
     id="defs6"><clipPath
       id="clipPath18"
       clipPathUnits="userSpaceOnUse"><path
         id="path20"
         d="M 0,0 10,0 10,10 0,10 0,0 Z"
         inkscape:connector-curvature="0" /></clipPath><clipPath
       clipPathUnits="userSpaceOnUse"
       id="clipPath4168"><path
         d="M 0,0 10,0 10,10 0,10 0,0 Z"
         id="path4170"
         inkscape:connector-curvature="0" /></clipPath></defs><g
     transform="matrix(1.3982247,0,0,-1.3982247,-15.16007,70.023835)"
     id="g10"><g
       transform="matrix(0.01016949,0,0,0.01016949,28.749732,-1.7637723)"
       id="g12"><g
         id="g14"><g
           clip-path="url(#clipPath18)"
           id="g16" /></g><g
         transform="scale(7090,5550)"
         id="g22"><g
           id="g4160"
           transform="matrix(0.0138693,0,0,0.01771772,-3.0852615,-5.0755215)"><g
             id="g4162"
             transform="scale(0.1,0.1)"><g
               id="g4164"><g
                 id="g4166"
                 clip-path="url(#clipPath4168)" /></g><g
               transform="matrix(0.9041081,0,0,-0.904108,2318.702,3385.3226)"
               id="g4240"
               style="fill-rule:evenodd"><g
                 style="fill:#212a5c;fill-opacity:1"
                 id="g4186"><g
                   style="fill:#212a5c;fill-opacity:1"
                   id="g4188"><path
                     style="fill:#212a5c;fill-opacity:1;stroke:none"
                     d="m 402.7,16.3 c -46.2,59 -90.8,125.9 -134.3,201.4 l -2.5,4.3 17.6,0 17.6,0 4.6,-10.3 C 313.6,194.4 349,124.1 365.5,93 381.8,62.3 410.8,8.90002 414.2,3.20001 415.3,1.5 416,0 415.8,0 c -0.2,0 -6.1,7.29999 -13.1,16.3 z"
                     id="path4190"
                     inkscape:connector-curvature="0" /><path
                     style="fill:#212a5c;fill-opacity:1;stroke:none"
                     d="m 28,235.6 c 0,0.8 -26.9,139 -27.700001,142.2 l -0.5,2.2 L 20,379.8 40.3,379.5 52.1,324 c 6.5,-30.5 12.1,-56 12.3,-56.7 0.8,-1.9 26.4,-1.8 31.1,0.1 9.6,4 9.5,18 -0.2,24.6 -3.3,2.3 -4.8,2.5 -17.2,3 l -13.5,0.5 -3.3,16 c -1.7,8.8 -3.2,16.8 -3.3,17.7 0,1.6 1.1,1.8 8.8,1.8 l 8.8,0 7.9,24.5 7.9,24.5 21.2,0 21.3,0 -10.4,-30.4 -10.4,-30.5 5.2,-1.7 c 4.8,-1.6 14.7,-9.4 14.7,-11.6 0,-0.5 -9.8,-16.7 -21.7,-35.9 L 89.5,235 58.8,235 c -17,0 -30.8,0.3 -30.8,0.6 z"
                     id="path4192"
                     inkscape:connector-curvature="0" /><path
                     style="fill:#cc1646;fill-opacity:1;stroke:none"
                     d="m 103.2,235.9 c 0.6,1.9 48.3,77 48.9,77 0.6,0.1 18.9,-34.2 18.9,-35.4 0,-0.3 -5.7,-10.1 -12.7,-21.6 l -12.6,-20.9 -21.5,0 c -12.6,0 -21.2,0.4 -21,0.9 z"
                     id="path4194"
                     inkscape:connector-curvature="0" /><path
                     style="fill:#cc1646;fill-opacity:1;stroke:none"
                     d="m 170.1,295.5 -32.3,60.5 3.9,11.7 4,11.8 12.3,0 12.3,0 37.5,-71 c 20.6,-39.1 37.7,-71.6 37.9,-72.3 0.4,-0.9 -4.3,-1.2 -21.4,-1.2 l -21.9,0 -32.3,60.5 z"
                     id="path4196"
                     inkscape:connector-curvature="0" /><path
                     style="fill:#212a5c;fill-opacity:1;stroke:none"
                     d="m 258.2,236.7 c -0.5,1 -17.7,33.4 -38.1,72 -20.4,38.6 -37.1,70.5 -37.1,70.8 0,0.3 9.9,0.5 21.9,0.5 l 22,0 6.3,-12 6.3,-12 20,0.2 20,0.3 1.8,9.5 c 1,5.2 2,10.5 2.2,11.7 l 0.5,2.3 22,0 22,0 -0.5,-2.3 c -0.3,-1.2 -6.6,-32.1 -14,-68.6 -7.4,-36.6 -13.7,-66.6 -13.8,-66.8 -0.2,-0.1 -6.3,13 -13.6,29.3 l -13.1,29.6 1.5,11 c 0.8,6 1.5,11.1 1.5,11.3 0,0.3 -4.5,0.5 -10,0.5 -5.5,0 -10,-0.2 -10,-0.5 0,-0.3 8.8,-20.2 19.5,-44.1 10.7,-23.9 19.5,-43.7 19.5,-43.9 0,-0.3 -8.1,-0.5 -18,-0.5 -16.1,0 -18,0.2 -18.8,1.7 z"
                     id="path4198"
                     inkscape:connector-curvature="0" /><path
                     style="fill:#212a5c;fill-opacity:1;stroke:none"
                     d="m 345,248.5 0,7.5 9.5,0 9.5,0 0,22 0,22 9,0 9,0 0,-22 0,-22 9.5,0 9.5,0 0,-7.5 0,-7.5 -28,0 -28,0 0,7.5 z"
                     id="path4200"
                     inkscape:connector-curvature="0" /><path
                     style="fill:#212a5c;fill-opacity:1;stroke:none"
                     d="m 499,246.5 0,5.5 8,0 8,0 0,-5.5 0,-5.5 -8,0 -8,0 0,5.5 z"
                     id="path4202"
                     inkscape:connector-curvature="0" /><path
                     style="fill:#212a5c;fill-opacity:1;stroke:none"
                     d="m 581,246.5 0,5.5 8.5,0 8.5,0 0,-5.5 0,-5.5 -8.5,0 -8.5,0 0,5.5 z"
                     id="path4204"
                     inkscape:connector-curvature="0" /><path
                     style="fill:#212a5c;fill-opacity:1;stroke:none"
                     d="m 427.5,256.7 c -1.1,0.2 -3.2,1.8 -4.7,3.6 l -2.8,3.1 0,-3.2 0,-3.2 -7.5,0 -7.5,0 0,21.5 0,21.5 8,0 8,0 0,-9 c 0,-10.3 1.5,-18.3 3.7,-20.1 0.8,-0.7 3.2,-1.2 5.3,-1.2 3.6,0.2 3.9,0 5.9,-4.9 1.2,-2.8 2.1,-5.4 2.1,-5.9 0,-0.7 -6.7,-3.1 -8,-2.8 -0.3,0.1 -1.4,0.3 -2.5,0.6 z"
                     id="path4206"
                     inkscape:connector-curvature="0" /><path
                     style="fill:#212a5c;fill-opacity:1;stroke:none"
                     d="m 456.8,257 c -3.2,0.4 -6.9,1.5 -8.3,2.4 -2.7,1.8 -6.5,7.2 -6.5,9.3 0,0.7 2.9,1.4 7.6,1.8 6.8,0.7 7.7,0.6 9.4,-1.3 2.8,-2.9 7.5,-3.7 10.5,-1.8 5.2,3.4 2.9,4.9 -12.3,8.1 -12.6,2.6 -16.2,5.6 -16.2,13.5 0,8.4 4.8,12 15.8,12 5.4,0 7.9,-0.5 11.5,-2.4 4.5,-2.4 4.6,-2.4 5.2,-0.5 0.6,1.7 1.6,1.9 8.6,1.9 6.2,0 7.8,-0.3 7.2,-1.3 -0.4,-0.6 -1,-8.3 -1.3,-16.9 -0.6,-17.5 -1.3,-19.7 -8.1,-22.9 -4.1,-2 -15.2,-2.9 -23.1,-1.9 z m 15.2,26.6 c 0,6.7 -11.6,11.6 -14.2,5.9 -1.5,-3.3 0.1,-5.1 6.1,-6.9 6.9,-2.2 8.1,-2 8.1,1 z"
                     id="path4208"
                     inkscape:connector-curvature="0" /><path
                     style="fill:#212a5c;fill-opacity:1;stroke:none"
                     d="m 551.8,256.9 c -2,0.4 -5.3,2 -7.2,3.5 l -3.6,2.7 0,-3 0,-3.1 -8,0 -8,0 0,21.5 0,21.5 8.4,0 8.4,0 0.4,-13.5 c 0.3,-14.7 1.1,-16.8 6.2,-16.8 5.2,0 5.6,1.4 5.6,16.4 l 0,13.9 8.6,0 8.6,0 -0.4,-17.3 c -0.2,-14.5 -0.6,-17.7 -2.1,-20 -3.3,-5.1 -9.5,-7.2 -16.9,-5.8 z"
                     id="path4210"
                     inkscape:connector-curvature="0" /><path
                     style="fill:#212a5c;fill-opacity:1;stroke:none"
                     d="m 634.3,257 c -1.8,0.4 -4.9,1.9 -6.8,3.4 l -3.5,2.7 0,-3 0,-3.1 -8,0 -8,0 0,21.5 0,21.5 8.4,0 8.4,0 0.4,-13.5 c 0.3,-14.8 1.1,-16.8 6.4,-16.8 4.7,0 5.4,2.3 5.4,17 l 0,13.3 8.6,0 8.6,0 -0.4,-17.3 c -0.3,-18.5 -0.9,-20.8 -6.1,-24.1 -2.9,-1.8 -9.4,-2.6 -13.4,-1.6 z"
                     id="path4212"
                     inkscape:connector-curvature="0" /><path
                     style="fill:#212a5c;fill-opacity:1;stroke:none"
                     d="m 674.5,256.9 c -8.5,2.1 -12.5,8.6 -12.5,20.2 0.1,11.3 3.2,17 11.5,20.4 4.6,2 10.5,1.4 15.3,-1.5 l 3.2,-2 0,4.9 c 0,3.5 -0.5,5.3 -2,6.6 -2.6,2.4 -8,2.2 -10.1,-0.4 -1.2,-1.4 -3.5,-2.2 -9.2,-2.8 l -7.7,-0.9 0,3.7 c 0,4.2 2.7,8.1 7.3,10.7 2.5,1.3 5.7,1.7 14.7,1.7 13.1,0 16,-1 20.7,-7.2 l 2.8,-3.6 0.3,-24.9 0.3,-24.8 -7.6,0 -7.5,0 0,3.2 0,3.1 -2.2,-2 c -4.5,-4.1 -11.5,-5.8 -17.3,-4.4 z M 690,271 c 2.2,2.2 2.8,9.7 0.9,13.1 -1.4,2.7 -4.8,3.8 -8,2.7 -4.7,-1.6 -6.4,-9.1 -3.4,-14.8 1.3,-2.5 2.2,-3 5,-3 2.2,0 4.3,0.8 5.5,2 z"
                     id="path4214"
                     inkscape:connector-curvature="0" /><path
                     style="fill:#212a5c;fill-opacity:1;stroke:none"
                     d="m 499,278.5 0,21.5 8,0 8,0 0,-21.5 0,-21.5 -8,0 -8,0 0,21.5 z"
                     id="path4216"
                     inkscape:connector-curvature="0" /><path
                     style="fill:#212a5c;fill-opacity:1;stroke:none"
                     d="m 581,278.5 0,21.5 8.5,0 8.5,0 0,-21.5 0,-21.5 -8.5,0 -8.5,0 0,21.5 z"
                     id="path4218"
                     inkscape:connector-curvature="0" /><path
                     style="fill:#212a5c;fill-opacity:1;stroke:none"
                     d="m 400.5,316.9 c -13.4,3.3 -20.5,13.6 -20.5,29.6 0,10 2.1,16.3 7.5,22.3 5.8,6.4 10.7,8.2 23,8.2 14.2,0 21,-4.2 26,-16.2 l 1.5,-3.7 -6.8,-2.1 c -3.7,-1.1 -7.4,-2.3 -8.4,-2.6 -1.2,-0.3 -1.8,0.3 -2.3,2.5 -1.4,6.5 -8.7,10.3 -14.8,7.7 -4.4,-1.8 -5.6,-3.5 -6.9,-10 -0.9,-4.3 -0.9,-6.9 0,-11.3 1.5,-7.3 4.4,-10.3 10.4,-11 3.7,-0.4 4.9,-0.1 7.6,2.2 1.8,1.5 3.2,3.3 3.2,4.1 0,1.8 0.3,1.8 9.5,-0.3 6.9,-1.5 7.5,-1.8 6.9,-3.7 -1.1,-3.5 -4.4,-8.4 -7.5,-11 -5.6,-4.7 -19.1,-6.9 -28.4,-4.7 z"
                     id="path4220"
                     inkscape:connector-curvature="0" /><path
                     style="fill:#212a5c;fill-opacity:1;stroke:none"
                     d="m 567.3,321.4 c -8.2,4 -8.3,4.1 -8.3,7.8 0,3.6 -0.2,3.8 -3,3.8 l -3,0 0,6.5 0,6.5 3,0 3,0 0,9.2 c 0.1,11.8 1.2,16.7 4.5,19.6 2.5,2.1 3.5,2.2 11.8,2 l 9.2,-0.3 0,-5.5 c 0,-5.5 0,-5.5 -2.9,-5.3 -4.9,0.4 -5.6,-1 -5.6,-10.8 l 0,-8.9 4.5,0 4.5,0 0,-6.5 0,-6.5 -4.5,0 -4.4,0 -0.3,-7.9 -0.3,-7.8 -8.2,4.1 z"
                     id="path4222"
                     inkscape:connector-curvature="0" /><path
                     style="fill:#212a5c;fill-opacity:1;stroke:none"
                     d="m 455.4,334.8 c -14.9,7 -16.4,29.8 -2.6,39.3 3.3,2.2 4.5,2.4 15.7,2.4 11.6,0 12.4,-0.1 16.1,-2.7 2.2,-1.5 4.7,-4.1 5.7,-5.7 l 1.7,-2.9 -7.7,-0.7 c -5.2,-0.5 -8.2,-0.4 -9.2,0.4 -6.4,4.6 -12.5,3 -14.5,-3.7 l -0.7,-2.2 16.7,0 16.7,0 -0.6,-5.8 c -0.6,-7.7 -3.7,-13.5 -8.9,-16.9 -3.7,-2.5 -5.1,-2.8 -14.2,-3.1 -8.2,-0.2 -10.9,0.1 -14.2,1.6 z m 18.3,9.5 c 0.6,0.7 1.5,2.4 1.8,3.9 l 0.7,2.8 -8.2,0 c -8,0 -8.1,0 -7.4,-2.3 0.9,-2.9 2.4,-4.7 4.9,-5.8 2.4,-1 6.5,-0.3 8.2,1.4 z"
                     id="path4224"
                     inkscape:connector-curvature="0" /><path
                     style="fill:#212a5c;fill-opacity:1;stroke:none"
                     d="m 501,354.5 0,21.5 8,0 8,0 0,-11.4 c 0,-15.2 1.3,-18.6 7.1,-18.6 4.6,0 5.4,2.1 5.7,16.7 l 0.4,13.3 7.9,0 7.9,0 0,-16 c 0,-17.6 -0.8,-21.1 -5.5,-24.8 -2.1,-1.7 -4.1,-2.2 -8.6,-2.2 -6.5,0 -9.4,0.9 -12.6,3.9 -2.9,2.8 -3.3,2.7 -3.3,-0.9 l 0,-3 -7.5,0 -7.5,0 0,21.5 z"
                     id="path4226"
                     inkscape:connector-curvature="0" /><path
                     style="fill:#212a5c;fill-opacity:1;stroke:none"
                     d="m 593,354.5 0,21.5 7.8,0 7.9,0 0.6,-11.3 c 0.3,-6.2 1.1,-12.5 1.6,-14 1.5,-3.8 5.2,-6 8.3,-4.8 2.4,0.9 2.7,0.6 5.1,-5 2.4,-5.7 2.5,-5.9 0.7,-6.9 -1,-0.6 -3.9,-1 -6.5,-1 -3.9,0 -5.1,0.5 -7.6,3.2 l -2.9,3.2 0,-3.2 0,-3.2 -7.5,0 -7.5,0 0,21.5 z"
                     id="path4228"
                     inkscape:connector-curvature="0" /><path
                     style="fill:#212a5c;fill-opacity:1;stroke:none"
                     d="m 639.9,335.3 c -2.4,1.3 -5.7,4.3 -7.4,6.6 -2.8,4 -3,4.9 -3,13.1 0,8.2 0.2,9.1 3,13.2 4.7,6.7 9.9,8.8 21.5,8.8 11.3,0 16,-1.8 20.8,-7.6 l 3.3,-3.9 -7.5,-0.9 c -6.7,-0.7 -8,-0.6 -12,1.4 -2.8,1.3 -5.4,1.9 -6.6,1.5 -2.8,-0.9 -6,-4.5 -6,-6.7 0,-1.7 1.2,-1.8 16.5,-1.8 l 16.5,0 -0.6,-5.8 c -1.7,-14.3 -9,-20.2 -25.2,-20.2 -7.4,0 -9.6,0.4 -13.3,2.3 z m 18.3,8.7 c 1.4,1.1 2.8,3.1 3,4.5 l 0.5,2.5 -7.8,0 c -6.9,0 -7.9,-0.2 -7.9,-1.8 0.1,-2.1 1.8,-4.5 4.5,-6 2.9,-1.7 4.9,-1.5 7.7,0.8 z"
                     id="path4230"
                     inkscape:connector-curvature="0" /><path
                     style="fill:#212a5c;fill-opacity:1;stroke:none"
                     d="m 96,393.5 c 0,0.8 52,160.8 52.3,161.1 0.2,0.2 70.7,-156 72.5,-160.7 0.2,-0.5 -9.9,-0.9 -22.5,-0.9 l -22.8,0 -11,21 c -6,11.5 -11.2,21 -11.5,21 -0.3,0 -3.7,-9.3 -7.6,-20.8 l -7.1,-20.7 -21.2,-0.3 c -11.6,-0.1 -21.1,0 -21.1,0.3 z"
                     id="path4232"
                     inkscape:connector-curvature="0" /></g></g></g></g></g></g></g></g></svg>